<?xml version="1.0" encoding="UTF-8" standalone="no"?>
<svg
   xmlns:dc="http://purl.org/dc/elements/1.1/"
   xmlns:cc="http://creativecommons.org/ns#"
   xmlns:rdf="http://www.w3.org/1999/02/22-rdf-syntax-ns#"
   xmlns:svg="http://www.w3.org/2000/svg"
   xmlns="http://www.w3.org/2000/svg"
   xmlns:sodipodi="http://sodipodi.sourceforge.net/DTD/sodipodi-0.dtd"
   xmlns:inkscape="http://www.inkscape.org/namespaces/inkscape"
   width="30.462784mm"
   height="7.1951432mm"
   viewBox="0 0 30.462784 7.1951432"
   version="1.1"
   id="svg1017"
   inkscape:version="1.0.1 (3bc2e813f5, 2020-09-07)"
   sodipodi:docname="logo.svg">
  <defs
     id="defs1011" />
  <sodipodi:namedview
     id="base"
     pagecolor="#ffffff"
     bordercolor="#666666"
     borderopacity="1.0"
     inkscape:pageopacity="0.0"
     inkscape:pageshadow="2"
     inkscape:zoom="1.979899"
     inkscape:cx="257.82022"
     inkscape:cy="179.15296"
     inkscape:document-units="mm"
     inkscape:current-layer="layer1"
     inkscape:document-rotation="0"
     showgrid="false"
     inkscape:window-width="1920"
     inkscape:window-height="1017"
     inkscape:window-x="-8"
     inkscape:window-y="-8"
     inkscape:window-maximized="1" />
  <metadata
     id="metadata1014">
    <rdf:RDF>
      <cc:Work
         rdf:about="">
        <dc:format>image/svg+xml</dc:format>
        <dc:type
           rdf:resource="http://purl.org/dc/dcmitype/StillImage" />
        <dc:title></dc:title>
      </cc:Work>
    </rdf:RDF>
  </metadata>
  <g
     inkscape:label="Layer 1"
     inkscape:groupmode="layer"
     id="layer1"
     transform="translate(-76.238847,-102.23576)">
    <path
       style="display:inline;fill:#005654;fill-opacity:1;stroke:none;stroke-width:0.264583px;stroke-linecap:round;stroke-linejoin:round;stroke-opacity:1"
       d="m 89.320498,103.18533 v 5.59588 l -1.1007,-1.2e-4 v 0.51688 l 3.83437,-4e-5 v -0.51688 l -1.1007,1.2e-4 v -5.59584"
       id="path977"
       sodipodi:nodetypes="cccccccc" />
    <path
       style="display:inline;fill:#005654;fill-opacity:1;stroke:none;stroke-width:0.264999;stroke-linecap:round;stroke-linejoin:round;stroke-miterlimit:4;stroke-dasharray:none;stroke-opacity:1"
       d="m 93.612908,102.96422 2.4e-4,5.81771 -1.116,-7.9e-4 v 0.5169 l 2.70951,2.6e-4 v -0.51691 h -1.11551 v -5.15572"
       id="path981"
       sodipodi:nodetypes="cccccccc" />
    <path
       style="display:inline;fill:#005654;fill-opacity:1;stroke:none;stroke-width:0.264583px;stroke-linecap:round;stroke-linejoin:round;stroke-opacity:1"
       d="m 101.32742,103.18563 v 5.59588 l -1.1007,-1.2e-4 v 0.51688 l 3.83437,-4e-5 v -0.51688 l -1.1007,1.2e-4 v -5.59584"
       id="path984"
       sodipodi:nodetypes="cccccccc" />
    <path
       id="path1096-3-9"
       style="display:inline;fill:#218380;fill-opacity:1;stroke:none;stroke-width:0.264583px;stroke-linecap:butt;stroke-linejoin:miter;stroke-opacity:1"
       d="m 83.797928,102.36837 0.4134,1.04614 -7.84,-2.5e-4 1.04582,-1.046 z m 1.6147,6.93 -2.32957,-5.88386 h 1.12827 l 1.7642,4.45073 z m 2.71997,-6.92986 -1.11561,-1.4e-4 -1.60642,4.07903 0.56496,1.41784 z m 6.75274,1.046 -0.79486,-1.046 h -5.95788 l -0.40795,1.04592 z m -1.27268,0 h 1.27268 l 3.2111,4.25013 10e-6,1.63379 z m 4.48326,-1.04614 -1.04853,1.046 v 2.84781 l 1.04905,1.4024 z m 8.473232,0 h -8.473232 v 1.046 l 7.426612,-3e-5 z"
       sodipodi:nodetypes="ccccccccccccccccccccccccccccccccccc" />
    <path
       id="path868-4-9"
       style="display:inline;fill:none;stroke:#000000;stroke-width:0.264999;stroke-linecap:round;stroke-linejoin:round;stroke-miterlimit:4;stroke-dasharray:none;stroke-opacity:1;paint-order:normal"
       d="m 83.232148,103.78284 2.18048,5.51553 2.57527,-6.56192 m -2.38732,3.22861 1.4164,-3.59669 7.07349,1.4e-4 3.66491,4.83931 m -14.044,-3.79331 -7.34005,-2.5e-4 1.04582,-1.046 6.38078,1.1e-4 1.97882,5.00576 m 11.27063,-1.61162 v -2.34814 l 1.04854,-1.046 8.473232,4.3e-4 -1.04662,1.046 h -7.026382 m -4.11071,-2.8e-4 -6.261,-1.6e-4 m 9.97146,-0.54585 5.2e-4,6.42992 -4.22321,-5.53252"
       sodipodi:nodetypes="ccccccccccccccccccccccc" />
    <path
       style="display:inline;fill:none;fill-opacity:1;stroke:#000000;stroke-width:0.264999;stroke-linecap:round;stroke-linejoin:round;stroke-miterlimit:4;stroke-dasharray:none;stroke-opacity:1"
       d="m 93.612908,104.02255 2.4e-4,4.75938 -1.116,-7.9e-4 v 0.5169 l 2.70951,2.6e-4 v -0.51691 h -1.11551 V 104.684"
       id="path906-3"
       sodipodi:nodetypes="cccccccc" />
    <path
       style="display:inline;fill:none;stroke:#000000;stroke-width:0.264583px;stroke-linecap:round;stroke-linejoin:round;stroke-opacity:1"
       d="m 101.32742,103.8148 v 4.96671 l -1.1007,-1.2e-4 v 0.51688 l 3.83437,-4e-5 v -0.51688 l -1.1007,1.2e-4 v -4.96667"
       id="path960"
       sodipodi:nodetypes="cccccccc" />
    <path
       style="display:inline;fill:none;stroke:#000000;stroke-width:0.264583px;stroke-linecap:round;stroke-linejoin:round;stroke-opacity:1"
       d="m 89.320498,103.8148 v 4.96641 l -1.1007,-1.2e-4 v 0.51688 l 3.83437,-4e-5 v -0.51688 l -1.1007,1.2e-4 v -4.96637"
       id="path960-9"
       sodipodi:nodetypes="cccccccc" />
  </g>
</svg>